<svg width="1000" height="1000" viewBox="0 0 1000 1000" fill="none" xmlns="http://www.w3.org/2000/svg">
<rect width="1000" height="1000" rx="50" fill="white"/>
<path d="M744.266 504.9C744.266 523.5 743.066 540.3 740.666 555.3H361.766C364.766 594.9 379.466 626.7 405.866 650.7C432.266 674.7 464.666 686.7 503.066 686.7C558.266 686.7 597.266 663.6 620.066 617.4H730.766C715.766 663 688.466 700.5 648.866 729.9C609.866 758.7 561.266 773.1 503.066 773.1C455.666 773.1 413.066 762.6 375.266 741.6C338.066 720 308.666 690 287.066 651.6C266.066 612.6 255.566 567.6 255.566 516.6C255.566 465.6 265.766 420.9 286.166 382.5C307.166 343.5 336.266 313.5 373.466 292.5C411.266 271.5 454.466 261 503.066 261C549.866 261 591.566 271.2 628.166 291.6C664.766 312 693.266 340.8 713.666 378C734.066 414.6 744.266 456.9 744.266 504.9ZM637.166 472.5C636.566 434.7 623.066 404.4 596.666 381.6C570.266 358.8 537.566 347.4 498.566 347.4C463.166 347.4 432.866 358.8 407.666 381.6C382.466 403.8 367.466 434.1 362.666 472.5H637.166Z" fill="#0C1422"/>
<rect x="26" y="555" width="947" height="84" rx="42" fill="white"/>
</svg>
